<?xml version="1.0" encoding="UTF-8" standalone="no"?> <svg xmlns="http://www.w3.org/2000/svg" viewBox="0 0 64 64"><g id="Outline"><path d="M4,28H38v9h2V17a3,3,0,0,0-3-3h-.184a2.95,2.95,0,0,0-2.036-3.884A2.99,2.99,0,0,0,32,6H24a2.993,2.993,0,0,0-.78,5.884A2.877,2.877,0,0,0,23.184,14H15V7a1,1,0,0,0-1-1V5A3,3,0,0,0,8,5V6A1,1,0,0,0,7,7v7H5a3,3,0,0,0-3,3V33.976H4ZM24,8h8a1,1,0,0,1,0,2H24a1,1,0,0,1,0-2Zm1,5a1,1,0,0,1,1-1h8a1,1,0,0,1,0,2H26A1,1,0,0,1,25,13ZM10,5a1,1,0,0,1,2,0V6H10ZM9,8h4v6H9ZM5,16H37a1,1,0,0,1,1,1v9H4V17A1,1,0,0,1,5,16Z"/><path d="M32,62V60H5a1,1,0,0,1-1-1V36.057H2V59a3,3,0,0,0,3,3Z"/><path d="M7,24h8a1,1,0,0,0,1-1V19a1,1,0,0,0-1-1H7a1,1,0,0,0-1,1v4A1,1,0,0,0,7,24Zm1-4h6v2H8Z"/><rect x="30" y="18" width="2" height="2"/><rect x="30" y="22" width="2" height="2"/><rect x="34" y="18" width="2" height="2"/><rect x="34" y="22" width="2" height="2"/><path d="M21,24a3,3,0,1,0-3-3A3,3,0,0,0,21,24Zm0-4a1,1,0,1,1-1,1A1,1,0,0,1,21,20Z"/><rect x="26" y="18" width="2" height="2"/><rect x="26" y="22" width="2" height="2"/><path d="M17.4,51.144a8.075,8.075,0,0,1-3.564-3.589,1,1,0,1,0-1.791.89,10.087,10.087,0,0,0,4.452,4.484,1,1,0,0,0,.9-1.785Z"/><path d="M25.31,34.974a1,1,0,0,0-.864,1.8,8.071,8.071,0,0,1,4.1,4.556,1,1,0,0,0,1.885-.666A10.077,10.077,0,0,0,25.31,34.974Z"/><path d="M61,42H58a2.994,2.994,0,0,0-5.3-1.917,2.917,2.917,0,0,0-2.069.263,3.984,3.984,0,0,0-7.264,0,2.917,2.917,0,0,0-2.069-.263A2.994,2.994,0,0,0,36,42H34.843a14,14,0,1,0-1.925,9.324l1.088,9.786A1,1,0,0,0,35,62H52.064V60H35.9L34.5,47.44v-.007L34.117,44H36v9a1,1,0,0,0,1,1h4a1,1,0,0,0,1-1V50h2a1,1,0,0,0,1-1V44h4v5a1,1,0,0,0,1,1h2v3a1,1,0,0,0,1,1h4a1,1,0,0,0,1-1V44h1.883L58.1,60H54v2h5a1,1,0,0,0,.994-.89l2-18A1,1,0,0,0,61,42ZM21,56A12,12,0,1,1,32.835,42.035a.982.982,0,0,0-.58.3,1,1,0,0,0-.249.777l.483,4.346A12.044,12.044,0,0,1,21,56Zm22-8H41a1,1,0,0,0-1,1v3H38V42a1,1,0,0,1,1.938-.326,1,1,0,0,0,1.5.5A1,1,0,0,1,43,43Zm4-8a2,2,0,0,1,2,2H45A2,2,0,0,1,47,40Zm9,12H54V49a1,1,0,0,0-1-1H51V43a1,1,0,0,1,1.558-.83,1,1,0,0,0,1.505-.5A1,1,0,0,1,56,42Z"/></g></svg>