<?xml version="1.0" encoding="UTF-8" standalone="no"?> <svg xmlns="http://www.w3.org/2000/svg" viewBox="0 0 48 48"><title>Cleaning And Housekeeping vol.1</title><g id="Layer_10" data-name="Layer 10"><circle cx="31.13281" cy="8.52148" r="1.56055"/><path d="M36.81738,33.127a1.76026,1.76026,0,1,0,1.75977,1.76075A1.763,1.763,0,0,0,36.81738,33.127Z"/><path d="M7.66211,30.27441a1.57032,1.57032,0,1,0,1.57031,1.57032A1.57208,1.57208,0,0,0,7.66211,30.27441Z"/><path d="M23.37891,12.77441A11.05054,11.05054,0,1,0,12.32861,23.8252,11.06277,11.06277,0,0,0,23.37891,12.77441Zm-6.21,1a.99973.99973,0,0,1-1-1,3.84465,3.84465,0,0,0-3.84034-3.84082,1,1,0,1,1,0-2A5.84725,5.84725,0,0,1,18.169,12.77441.99974.99974,0,0,1,17.169,13.77441Z"/><path d="M38.42773,11.93652a8.29444,8.29444,0,1,0,8.294,8.29493A8.30383,8.30383,0,0,0,38.42773,11.93652ZM41.044,21.23145a.99942.99942,0,0,1-1-1,1.61751,1.61751,0,0,0-1.61622-1.61622,1,1,0,0,1,0-2A3.62011,3.62011,0,0,1,42.044,20.23145.99943.99943,0,0,1,41.044,21.23145Z"/><path d="M23.23,29.44336a8.41651,8.41651,0,1,0,8.4165,8.417A8.42574,8.42574,0,0,0,23.23,29.44336Zm3.73291,9.417a.99942.99942,0,0,1-1-1A2.73655,2.73655,0,0,0,23.23,35.127a1,1,0,0,1,0-2,4.73821,4.73821,0,0,1,4.73291,4.7334A.99942.99942,0,0,1,26.96289,38.86035Z"/></g></svg>